<?xml version="1.0" encoding="utf-8"?>
<!-- Generator: Adobe Illustrator 19.0.0, SVG Export Plug-In . SVG Version: 6.00 Build 0)  -->
<svg version="1.1" id="Layer_1" xmlns="http://www.w3.org/2000/svg" xmlns:xlink="http://www.w3.org/1999/xlink" x="0px" y="0px"
	 viewBox="0 0 463.5 90" style="enable-background:new 0 0 463.5 90;" xml:space="preserve">
<style type="text/css">
	.st0{fill:#3C3C3B;}
	.st1{fill:#3C3C3B;stroke:#3C3C3B;stroke-width:2;stroke-miterlimit:10;}
	.st2{fill:#67A2BE;}
</style>
<g>
	<g>
		<path class="st0" d="M-545.5-8.5c-0.2,4.9-0.4,10.2-0.4,15.8v29.4c0,10.3,0.3,16.1,0.9,17.3c0.6,1.2,2.6,1.9,6.1,1.9h3.5v3.2
			c-6.1-0.2-10.8-0.4-14.3-0.4c-3.1,0-8.6,0.1-16.4,0.4v-3.2h4.6c2.2,0,3.5-0.3,4.2-0.8c0.6-0.5,1-1.6,1.2-3.2
			c0.2-1.6,0.4-6.6,0.6-14.9V9.4l-0.2-10.6c-0.1-4.4-0.5-7.1-1.4-8.1c-0.9-1-3-1.5-6.4-1.5h-2.6v-3.2c4.3,0.2,9.7,0.3,16.3,0.3
			c3.9,0,8.2-0.1,12.9-0.3c3.1-0.1,5.5-0.2,7.1-0.2c8.3,0,14.3,1.5,18.1,4.5c3.7,3,5.6,7.1,5.6,12.2c0,3.7-1.1,7.3-3.2,10.8
			c-2.2,3.4-5.2,6.2-9.2,8.3c-4,2.1-8.2,3.1-12.7,3.1c-2.1,0-4.6-0.3-7.7-1l-1-3.9c3,0.8,5.5,1.1,7.6,1.1c4.7,0,8.5-1.4,11.3-4.3
			c2.8-2.9,4.2-6.8,4.2-11.7c0-4.8-1.5-8.5-4.4-11.2c-3-2.7-7.4-4-13.2-4C-537.9-10.4-541.5-9.7-545.5-8.5z"/>
	</g>
	<g>
		<path class="st0" d="M-493.5,25V6.3c0-2.2-0.2-3.5-0.7-4.1c-0.5-0.5-1.6-0.8-3.3-0.8h-4.4v-3.1c6.1-0.4,11.8-1.7,17.1-3.8l0.9,0.6
			c-0.2,3.5-0.4,7.7-0.6,12.7l-0.2,13.7l-0.1,4.4v30.7c0,5.7,0.2,8.9,0.5,9.6c0.5,0.9,1.9,1.5,4.3,1.9l3.6,0.5v3
			c-4.2-0.3-8-0.5-11.2-0.5c-0.6,0-2.8,0.2-6.5,0.5c0.2-2.3,0.4-5.6,0.6-9.9c-2.9,2.3-6.6,5.4-11.1,9.5c-2.9,1-5.5,1.4-7.7,1.4
			c-5.8,0-10.6-2.2-14.5-6.5c-3.9-4.4-5.9-10.2-5.9-17.5c0-4.6,0.8-8.4,2.3-11.7c1.5-3.2,3.3-5.6,5.4-7c2.1-1.5,5.3-3.3,9.8-5.5
			c3.4-1.7,6.5-2.5,9.4-2.5c1.9,0,4,0.3,6,0.8C-497.8,23.1-495.7,23.9-493.5,25z M-493.5,33.8c-2.4-2.5-4.8-4.4-7.4-5.7
			c-2.5-1.3-5.2-1.9-8-1.9c-4.5,0-8.1,1.6-10.8,4.9c-2.7,3.3-4.1,8.1-4.1,14.4c0,6.4,1.6,11.5,4.7,15.1c3.1,3.7,6.9,5.5,11.4,5.5
			c2.7,0,5.3-0.8,7.5-2.3c2.3-1.5,4-3.5,5-5.9c1.1-2.4,1.6-6.3,1.6-11.5V33.8z"/>
	</g>
</g>
<g>
	<path class="st0" d="M-465.8,35.5h12.3v-7.6c0-1.4-0.1-2.3-0.3-2.7c-0.1-0.3-0.4-0.6-0.8-0.8c-0.6-0.3-1.2-0.5-1.8-0.5h-0.9v-0.7
		h11.4V24h-0.9c-0.6,0-1.2,0.2-1.8,0.5c-0.4,0.2-0.7,0.5-0.9,0.9c-0.2,0.4-0.2,1.3-0.2,2.6v17.1c0,1.3,0.1,2.2,0.3,2.7
		c0.1,0.3,0.4,0.6,0.8,0.8c0.6,0.3,1.2,0.5,1.8,0.5h0.9v0.7h-11.4v-0.7h0.9c1.1,0,1.9-0.3,2.4-1c0.3-0.4,0.5-1.4,0.5-3V37h-12.3v8.1
		c0,1.3,0.1,2.2,0.3,2.7c0.1,0.3,0.4,0.6,0.8,0.8c0.6,0.3,1.2,0.5,1.8,0.5h1v0.7h-11.4v-0.7h0.9c1.1,0,1.9-0.3,2.4-1
		c0.3-0.4,0.5-1.4,0.5-3V27.9c0-1.4-0.1-2.3-0.3-2.7c-0.1-0.3-0.4-0.6-0.8-0.8c-0.6-0.3-1.2-0.5-1.8-0.5h-0.9v-0.7h11.4V24h-1
		c-0.6,0-1.2,0.2-1.8,0.5c-0.4,0.2-0.7,0.5-0.8,0.9c-0.2,0.4-0.2,1.3-0.2,2.6V35.5z"/>
	<path class="st0" d="M-424.7,30.8c2.4,0,4.5,0.9,6.3,2.7c1.8,1.8,2.7,4.1,2.7,6.9c0,2.8-0.9,5.2-2.7,7c-1.8,1.9-3.9,2.8-6.5,2.8
		c-2.6,0-4.7-0.9-6.4-2.7c-1.7-1.8-2.6-4.2-2.6-7.1c0-3,1-5.4,3-7.2C-429.2,31.6-427.2,30.8-424.7,30.8z M-425,31.8
		c-1.7,0-3,0.6-4,1.9c-1.3,1.5-1.9,3.8-1.9,6.7c0,3,0.6,5.4,1.9,7c1,1.2,2.3,1.9,3.9,1.9c1.7,0,3.2-0.7,4.3-2
		c1.1-1.4,1.7-3.5,1.7-6.4c0-3.2-0.6-5.5-1.9-7.1C-421.8,32.4-423.2,31.8-425,31.8z"/>
	<path class="st0" d="M-393.1,49.8l-7.2-15.6v12.4c0,1.1,0.1,1.9,0.4,2.1c0.3,0.4,0.9,0.6,1.6,0.6h0.7v0.5h-6.5v-0.5h0.7
		c0.8,0,1.3-0.2,1.7-0.7c0.2-0.3,0.3-1,0.3-2V34.4c0-0.8-0.1-1.4-0.3-1.8c-0.1-0.3-0.4-0.5-0.7-0.7c-0.3-0.2-0.9-0.3-1.7-0.3v-0.5
		h5.3l6.7,14.5l6.6-14.5h5.3v0.5h-0.6c-0.8,0-1.4,0.2-1.7,0.7c-0.2,0.3-0.3,1-0.3,2v12.1c0,1.1,0.1,1.9,0.4,2.1
		c0.3,0.4,0.9,0.6,1.6,0.6h0.6v0.5h-7.9v-0.5h0.7c0.8,0,1.4-0.2,1.7-0.7c0.2-0.3,0.3-1,0.3-2V34.1l-7.2,15.6H-393.1z"/>
	<path class="st0" d="M-363,32.2v7.3h4.1c1.1,0,1.8-0.2,2.1-0.5c0.5-0.4,0.7-1.2,0.8-2.2h0.5v6.5h-0.5c-0.1-0.9-0.3-1.5-0.4-1.7
		c-0.2-0.3-0.4-0.6-0.8-0.8c-0.4-0.2-1-0.3-1.7-0.3h-4.1v6.1c0,0.8,0,1.3,0.1,1.5c0.1,0.2,0.2,0.3,0.4,0.4c0.2,0.1,0.5,0.2,1,0.2
		h3.2c1.1,0,1.8-0.1,2.3-0.2c0.5-0.1,0.9-0.4,1.4-0.9c0.6-0.6,1.1-1.4,1.7-2.6h0.5l-1.6,4.7h-14.3v-0.5h0.7c0.4,0,0.9-0.1,1.2-0.3
		c0.3-0.1,0.5-0.4,0.6-0.7c0.1-0.3,0.2-0.9,0.2-1.8V34.4c0-1.2-0.1-1.9-0.4-2.2c-0.3-0.4-0.9-0.5-1.6-0.5h-0.7v-0.5h14.3l0.2,4.1
		h-0.5c-0.2-1-0.4-1.6-0.6-2c-0.2-0.4-0.6-0.6-1-0.8c-0.4-0.1-1-0.2-1.9-0.2H-363z"/>
</g>
<g>
	<path class="st0" d="M-261.9,24.1l0.6,7.8h-0.6c-0.6-2-1.5-3.4-2.5-4.4c-1.5-1.4-3.4-2.1-5.7-2.1c-3.2,0-5.6,1.2-7.2,3.7
		c-1.4,2.1-2.1,4.6-2.1,7.5c0,2.4,0.5,4.5,1.4,6.5c0.9,2,2.1,3.4,3.6,4.3c1.5,0.9,3,1.4,4.6,1.4c0.9,0,1.8-0.1,2.7-0.3
		c0.9-0.2,1.7-0.6,2.5-1v-7.2c0-1.2-0.1-2.1-0.3-2.4c-0.2-0.4-0.5-0.7-0.9-0.9c-0.4-0.2-1.1-0.3-2.1-0.3v-0.7h9.6v0.7h-0.5
		c-1,0-1.6,0.3-2,1c-0.2,0.5-0.4,1.3-0.4,2.7v7.6c-1.4,0.8-2.8,1.3-4.2,1.7c-1.4,0.4-2.9,0.5-4.6,0.5c-4.8,0-8.4-1.5-10.9-4.6
		c-1.9-2.3-2.8-5-2.8-8c0-2.2,0.5-4.3,1.6-6.3c1.2-2.4,3-4.2,5.1-5.5c1.8-1.1,4-1.6,6.4-1.6c0.9,0,1.7,0.1,2.5,0.2
		c0.7,0.1,1.8,0.5,3.1,1c0.7,0.3,1.1,0.4,1.4,0.4c0.2,0,0.4-0.1,0.6-0.3c0.2-0.2,0.3-0.6,0.3-1.3H-261.9z"/>
	<path class="st0" d="M-232.8,43.6h-6.7l-1.2,2.7c-0.3,0.7-0.4,1.2-0.4,1.5c0,0.3,0.1,0.5,0.4,0.7c0.3,0.2,0.8,0.3,1.6,0.4v0.5h-5.5
		V49c0.7-0.1,1.2-0.3,1.4-0.5c0.4-0.4,0.9-1.2,1.4-2.5l6.1-14.3h0.4l6,14.4c0.5,1.2,0.9,1.9,1.3,2.3c0.4,0.3,0.9,0.5,1.7,0.6v0.5
		h-6.8V49c0.7,0,1.2-0.1,1.4-0.3c0.2-0.2,0.4-0.4,0.4-0.7c0-0.4-0.2-1-0.5-1.8L-232.8,43.6z M-233.1,42.7l-2.9-7l-3,7H-233.1z"/>
	<path class="st0" d="M-195,49.4h-4.6l-5.9-8.1c-0.4,0-0.8,0-1.1,0c-0.1,0-0.2,0-0.4,0c-0.1,0-0.3,0-0.4,0v5c0,1.1,0.1,1.8,0.4,2
		c0.3,0.4,0.8,0.6,1.5,0.6h0.7v0.5h-7.4V49h0.7c0.7,0,1.3-0.2,1.6-0.7c0.2-0.3,0.3-0.9,0.3-1.9V35.2c0-1.1-0.1-1.8-0.4-2
		c-0.3-0.4-0.8-0.6-1.5-0.6h-0.7v-0.5h6.3c1.8,0,3.2,0.1,4.1,0.4c0.9,0.3,1.6,0.8,2.2,1.5c0.6,0.7,0.9,1.6,0.9,2.6
		c0,1.1-0.3,2-1,2.8c-0.7,0.8-1.8,1.3-3.2,1.7l3.6,5c0.8,1.1,1.5,1.9,2.1,2.3c0.6,0.4,1.4,0.6,2.3,0.7V49.4z M-207.4,40.5
		c0.2,0,0.3,0,0.4,0c0.1,0,0.2,0,0.3,0c1.7,0,2.9-0.4,3.7-1.1c0.8-0.7,1.3-1.6,1.3-2.7c0-1.1-0.3-2-1-2.6c-0.7-0.7-1.6-1-2.7-1
		c-0.5,0-1.2,0.1-2,0.2V40.5z"/>
	<path class="st0" d="M-181.7,49.4V49h0.7c0.7,0,1.3-0.2,1.6-0.7c0.2-0.3,0.3-0.9,0.3-1.9V35.2c0-1.1-0.1-1.8-0.4-2
		c-0.3-0.4-0.8-0.6-1.5-0.6h-0.7v-0.5h7.1c2.6,0,4.6,0.3,5.9,0.9c1.4,0.6,2.4,1.6,3.3,2.9c0.8,1.4,1.2,3,1.2,4.8
		c0,2.4-0.7,4.4-2.2,6.1c-1.6,1.8-4.2,2.7-7.5,2.7H-181.7z M-176.8,48.2c1.1,0.2,2,0.4,2.7,0.4c2,0,3.6-0.7,4.9-2.1
		c1.3-1.4,2-3.3,2-5.7c0-2.4-0.7-4.3-2-5.7c-1.3-1.4-3-2.1-5-2.1c-0.8,0-1.6,0.1-2.6,0.4V48.2z"/>
	<path class="st0" d="M-144.7,33v6.9h3.8c1,0,1.7-0.1,2-0.4c0.4-0.4,0.7-1.1,0.7-2.1h0.5v6h-0.5c-0.1-0.8-0.2-1.4-0.4-1.6
		c-0.2-0.3-0.4-0.5-0.8-0.7c-0.4-0.2-0.9-0.3-1.6-0.3h-3.8v5.7c0,0.8,0,1.2,0.1,1.4c0.1,0.2,0.2,0.3,0.4,0.4c0.2,0.1,0.5,0.1,1,0.1
		h2.9c1,0,1.7-0.1,2.1-0.2c0.4-0.1,0.9-0.4,1.3-0.8c0.5-0.5,1.1-1.3,1.6-2.4h0.5l-1.5,4.4h-13.4V49h0.6c0.4,0,0.8-0.1,1.2-0.3
		c0.3-0.1,0.5-0.3,0.6-0.6c0.1-0.3,0.1-0.8,0.1-1.7V35.1c0-1.1-0.1-1.8-0.3-2c-0.3-0.3-0.8-0.5-1.5-0.5h-0.6v-0.5h13.4l0.2,3.8h-0.5
		c-0.2-0.9-0.4-1.5-0.6-1.9c-0.2-0.3-0.5-0.6-1-0.8c-0.3-0.1-0.9-0.2-1.8-0.2H-144.7z"/>
	<path class="st0" d="M-121.4,32.1h4.7l10.6,13v-10c0-1.1-0.1-1.7-0.4-2c-0.3-0.4-0.8-0.5-1.5-0.5h-0.6v-0.5h6v0.5h-0.6
		c-0.7,0-1.3,0.2-1.6,0.7c-0.2,0.3-0.3,0.9-0.3,1.9v14.6h-0.5l-11.4-14v10.7c0,1.1,0.1,1.7,0.3,2c0.3,0.4,0.8,0.5,1.5,0.5h0.6v0.5
		h-6V49h0.6c0.7,0,1.3-0.2,1.6-0.7c0.2-0.3,0.3-0.9,0.3-1.9V34.4c-0.5-0.6-0.9-1-1.1-1.2c-0.3-0.2-0.6-0.4-1.1-0.5
		c-0.2-0.1-0.6-0.1-1.1-0.1V32.1z"/>
</g>
<line class="st1" x1="-473.4" y1="58.9" x2="-352.4" y2="58.9"/>
<line class="st1" x1="-473.4" y1="14.5" x2="-352.4" y2="14.5"/>
<line class="st1" x1="-283.6" y1="14.5" x2="-102.5" y2="14.5"/>
<line class="st1" x1="-283.6" y1="59.6" x2="-102.5" y2="59.6"/>
<g>
	<path class="st2" d="M-324.8,5.7c1.8,0,3.5,0.3,5,0.8c1.5,0.6,2.8,1.3,3.8,2.2c1.1,0.9,1.9,2,2.4,3.3c0.6,1.2,0.8,2.6,0.8,4
		c0,1.1-0.1,2.3-0.4,3.4c-0.3,1.2-0.8,2.3-1.6,3.5c-0.8,1.2-1.9,2.3-3.3,3.4c-1.4,1.1-3.3,2.2-5.6,3.3l14.2,15
		c0.7-1.1,1.3-2.2,2-3.5c0.6-1.3,1.2-2.6,1.6-3.9c0.5-1.3,0.8-2.6,1.2-3.9c0.3-1.3,0.5-2.4,0.6-3.4c0-0.4-0.2-0.6-0.5-0.6l-5.8-0.5
		c-0.3,0-0.4-0.1-0.4-0.4v-2.1c0-0.3,0.1-0.4,0.4-0.4h17c0.3,0,0.4,0.1,0.4,0.4v2.1c0,0.3-0.1,0.4-0.4,0.4l-6.4,0.5
		c-0.3,0.1-0.5,0.1-0.5,0.2c-0.1,0.1-0.1,0.2-0.1,0.3c-0.1,1.1-0.3,2.4-0.7,3.8c-0.3,1.4-0.8,2.9-1.4,4.5c-0.6,1.6-1.2,3.2-1.9,4.8
		c-0.7,1.6-1.5,3.1-2.3,4.5l9,9.4c0.1,0.1,0.2,0.2,0.4,0.2l6.6,0.6c0.3,0,0.4,0.1,0.4,0.4V60c0,0.3-0.1,0.4-0.4,0.4h-12.8
		c-0.2,0-0.3-0.1-0.4-0.2l-6.8-7.1c-1,1.2-2.1,2.3-3.1,3.3c-1.1,1-2.3,1.9-3.7,2.7c-1.4,0.8-2.9,1.4-4.6,1.8c-1.7,0.4-3.7,0.6-6,0.6
		c-2.3,0-4.4-0.4-6.3-1.1c-1.9-0.8-3.6-1.8-5-3c-1.4-1.3-2.6-2.8-3.4-4.5c-0.8-1.7-1.2-3.6-1.2-5.5c0-3.5,1-6.7,2.9-9.5
		c1.9-2.8,4.8-5.3,8.8-7.5c-1.1-1.2-2-2.3-2.7-3.3c-0.7-1-1.3-2-1.7-3c-0.4-1-0.8-1.9-1-2.9c-0.2-1-0.3-2-0.3-3.1c0-1.8,0.3-3.4,1-5
		c0.7-1.5,1.6-2.8,2.8-3.9c1.2-1.1,2.6-2,4.3-2.6C-328.6,6-326.8,5.7-324.8,5.7z M-333.1,35.1c-0.8,0.8-1.5,1.7-2.1,2.7
		c-0.6,1-1.1,2-1.4,3.1c-0.3,1.1-0.5,2.1-0.5,3.2c0,1.9,0.3,3.6,1,5.1c0.6,1.5,1.5,2.8,2.7,3.8c1.1,1,2.5,1.9,4,2.5
		c1.5,0.6,3.1,0.9,4.8,0.9c2,0,3.9-0.5,5.9-1.4c1.9-0.9,3.7-2.4,5.2-4.5l-16.6-17.5C-331.4,33.5-332.3,34.2-333.1,35.1z M-326.2,9.3
		c-0.8,0-1.6,0.1-2.3,0.4c-0.7,0.3-1.4,0.7-1.9,1.2c-0.6,0.5-1,1.2-1.3,1.9c-0.3,0.8-0.5,1.7-0.5,2.7c0,1.9,0.5,3.8,1.6,5.6
		c1.1,1.8,2.6,3.8,4.6,5.8c2.4-1.2,4.2-2.7,5.4-4.4c1.2-1.7,1.8-3.7,1.8-5.9c0-2.4-0.6-4.2-1.9-5.5C-322,10-323.8,9.3-326.2,9.3z"/>
</g>
<g id="XMLID_50_">
	<g id="XMLID_56_">
		<path id="XMLID_57_" class="st0" d="M20.6,6.9c-0.2,4.9-0.4,10.2-0.4,15.8V52c0,10.3,0.3,16.1,0.9,17.3c0.6,1.2,2.6,1.9,6.1,1.9
			h3.5v3.2C24.7,74.2,19.9,74,16.4,74c-3.1,0-8.6,0.1-16.4,0.4v-3.2h4.6c2.2,0,3.5-0.3,4.2-0.8c0.6-0.5,1-1.6,1.2-3.2
			c0.2-1.6,0.4-6.6,0.6-14.9V24.7l-0.2-10.6C10.3,9.7,9.8,7,9,6C8.1,5,6,4.5,2.6,4.5H0V1.3c4.3,0.2,9.7,0.3,16.3,0.3
			c3.9,0,8.2-0.1,12.9-0.3C32.3,1.1,34.7,1,36.3,1c8.3,0,14.3,1.5,18.1,4.5c3.7,3,5.6,7.1,5.6,12.2c0,3.7-1.1,7.3-3.2,10.8
			c-2.2,3.4-5.2,6.2-9.2,8.3c-4,2.1-8.2,3.1-12.7,3.1c-2.1,0-4.6-0.3-7.7-1l-1-3.9c3,0.8,5.5,1.1,7.6,1.1c4.7,0,8.5-1.4,11.3-4.3
			c2.8-2.9,4.2-6.8,4.2-11.7c0-4.8-1.5-8.5-4.4-11.2c-3-2.7-7.4-4-13.2-4C28.1,5,24.5,5.6,20.6,6.9z"/>
	</g>
	<g id="XMLID_51_">
		<path id="XMLID_52_" class="st0" d="M72.5,40.3V21.6c0-2.2-0.2-3.5-0.7-4.1c-0.5-0.5-1.6-0.8-3.3-0.8h-4.4v-3.1
			c6.1-0.4,11.8-1.7,17.1-3.8l0.9,0.6c-0.2,3.5-0.4,7.7-0.6,12.7l-0.2,13.7l-0.1,4.4V72c0,5.7,0.2,8.9,0.5,9.6
			c0.5,0.9,1.9,1.5,4.3,1.9l3.6,0.5v3c-4.2-0.3-8-0.5-11.2-0.5c-0.6,0-2.8,0.2-6.5,0.5c0.2-2.3,0.4-5.6,0.6-9.9
			c-2.9,2.3-6.6,5.4-11.1,9.5c-2.9,1-5.5,1.4-7.7,1.4c-5.8,0-10.6-2.2-14.5-6.5c-3.9-4.4-5.9-10.2-5.9-17.5c0-4.6,0.8-8.4,2.3-11.7
			c1.5-3.2,3.3-5.6,5.4-7c2.1-1.5,5.3-3.3,9.8-5.5c3.4-1.7,6.5-2.5,9.4-2.5c1.9,0,4,0.3,6,0.8C68.2,38.4,70.3,39.2,72.5,40.3z
			 M72.5,49.1c-2.4-2.5-4.8-4.4-7.4-5.7c-2.5-1.3-5.2-1.9-8-1.9c-4.5,0-8.1,1.6-10.8,4.9c-2.7,3.3-4.1,8.1-4.1,14.4
			c0,6.4,1.6,11.5,4.7,15.1c3.1,3.7,6.9,5.5,11.4,5.5c2.7,0,5.3-0.8,7.5-2.3c2.3-1.5,4-3.5,5-5.9c1.1-2.4,1.6-6.3,1.6-11.5V49.1z"/>
	</g>
</g>
<g id="XMLID_40_">
	<path id="XMLID_48_" class="st0" d="M100.2,50.9h12.3v-7.6c0-1.4-0.1-2.3-0.3-2.7c-0.1-0.3-0.4-0.6-0.8-0.8
		c-0.6-0.3-1.2-0.5-1.8-0.5h-0.9v-0.7h11.4v0.7h-0.9c-0.6,0-1.2,0.2-1.8,0.5c-0.4,0.2-0.7,0.5-0.9,0.9c-0.2,0.4-0.2,1.3-0.2,2.6
		v17.1c0,1.3,0.1,2.2,0.3,2.7c0.1,0.3,0.4,0.6,0.8,0.8c0.6,0.3,1.2,0.5,1.8,0.5h0.9v0.7h-11.4v-0.7h0.9c1.1,0,1.9-0.3,2.4-1
		c0.3-0.4,0.5-1.4,0.5-3v-8.1h-12.3v8.1c0,1.3,0.1,2.2,0.3,2.7c0.1,0.3,0.4,0.6,0.8,0.8c0.6,0.3,1.2,0.5,1.8,0.5h1v0.7H92.6v-0.7
		h0.9c1.1,0,1.9-0.3,2.4-1c0.3-0.4,0.5-1.4,0.5-3V43.3c0-1.4-0.1-2.3-0.3-2.7c-0.1-0.3-0.4-0.6-0.8-0.8c-0.6-0.3-1.2-0.5-1.8-0.5
		h-0.9v-0.7H104v0.7h-1c-0.6,0-1.2,0.2-1.8,0.5c-0.4,0.2-0.7,0.5-0.8,0.9c-0.2,0.4-0.2,1.3-0.2,2.6V50.9z"/>
	<path id="XMLID_45_" class="st0" d="M141.3,46.1c2.4,0,4.5,0.9,6.3,2.7c1.8,1.8,2.7,4.1,2.7,6.9c0,2.8-0.9,5.2-2.7,7
		c-1.8,1.9-3.9,2.8-6.5,2.8c-2.6,0-4.7-0.9-6.4-2.7c-1.7-1.8-2.6-4.2-2.6-7.1c0-3,1-5.4,3-7.2C136.8,46.9,138.9,46.1,141.3,46.1z
		 M141.1,47.1c-1.7,0-3,0.6-4,1.9c-1.3,1.5-1.9,3.8-1.9,6.7c0,3,0.6,5.4,1.9,7c1,1.2,2.3,1.9,3.9,1.9c1.7,0,3.2-0.7,4.3-2
		c1.1-1.4,1.7-3.5,1.7-6.4c0-3.2-0.6-5.5-1.9-7.1C144.2,47.7,142.8,47.1,141.1,47.1z"/>
	<path id="XMLID_43_" class="st0" d="M173,65.1l-7.2-15.6v12.4c0,1.1,0.1,1.9,0.4,2.1c0.3,0.4,0.9,0.6,1.6,0.6h0.7v0.5h-6.5v-0.5
		h0.7c0.8,0,1.3-0.2,1.7-0.7c0.2-0.3,0.3-1,0.3-2V49.7c0-0.8-0.1-1.4-0.3-1.8c-0.1-0.3-0.4-0.5-0.7-0.7c-0.3-0.2-0.9-0.3-1.7-0.3
		v-0.5h5.3l6.7,14.5l6.6-14.5h5.3V47h-0.6c-0.8,0-1.4,0.2-1.7,0.7c-0.2,0.3-0.3,1-0.3,2v12.1c0,1.1,0.1,1.9,0.4,2.1
		c0.3,0.4,0.9,0.6,1.6,0.6h0.6v0.5h-7.9v-0.5h0.7c0.8,0,1.4-0.2,1.7-0.7c0.2-0.3,0.3-1,0.3-2V49.4l-7.2,15.6H173z"/>
	<path id="XMLID_41_" class="st0" d="M203,47.5v7.3h4.1c1.1,0,1.8-0.2,2.1-0.5c0.5-0.4,0.7-1.2,0.8-2.2h0.5v6.5H210
		c-0.1-0.9-0.3-1.5-0.4-1.7c-0.2-0.3-0.4-0.6-0.8-0.8c-0.4-0.2-1-0.3-1.7-0.3H203V62c0,0.8,0,1.3,0.1,1.5c0.1,0.2,0.2,0.3,0.4,0.4
		c0.2,0.1,0.5,0.2,1,0.2h3.2c1.1,0,1.8-0.1,2.3-0.2c0.5-0.1,0.9-0.4,1.4-0.9c0.6-0.6,1.1-1.4,1.7-2.6h0.5l-1.6,4.7h-14.3v-0.5h0.7
		c0.4,0,0.9-0.1,1.2-0.3c0.3-0.1,0.5-0.4,0.6-0.7c0.1-0.3,0.2-0.9,0.2-1.8V49.7c0-1.2-0.1-1.9-0.4-2.2c-0.3-0.4-0.9-0.5-1.6-0.5
		h-0.7v-0.5h14.3l0.2,4.1h-0.5c-0.2-1-0.4-1.6-0.6-2c-0.2-0.4-0.6-0.6-1-0.8c-0.4-0.1-1-0.2-1.9-0.2H203z"/>
</g>
<g id="XMLID_24_">
	<path id="XMLID_38_" class="st0" d="M304.1,39.4l0.6,7.8h-0.6c-0.6-2-1.5-3.4-2.5-4.4c-1.5-1.4-3.4-2.1-5.7-2.1
		c-3.2,0-5.6,1.2-7.2,3.7c-1.4,2.1-2.1,4.6-2.1,7.5c0,2.4,0.5,4.5,1.4,6.5c0.9,2,2.1,3.4,3.6,4.3c1.5,0.9,3,1.4,4.6,1.4
		c0.9,0,1.8-0.1,2.7-0.3c0.9-0.2,1.7-0.6,2.5-1v-7.2c0-1.2-0.1-2.1-0.3-2.4c-0.2-0.4-0.5-0.7-0.9-0.9c-0.4-0.2-1.1-0.3-2.1-0.3v-0.7
		h9.6v0.7h-0.5c-1,0-1.6,0.3-2,1c-0.2,0.5-0.4,1.3-0.4,2.7v7.6c-1.4,0.8-2.8,1.3-4.2,1.7c-1.4,0.4-2.9,0.5-4.6,0.5
		c-4.8,0-8.4-1.5-10.9-4.6c-1.9-2.3-2.8-5-2.8-8c0-2.2,0.5-4.3,1.6-6.3c1.2-2.4,3-4.2,5.1-5.5c1.8-1.1,4-1.6,6.4-1.6
		c0.9,0,1.7,0.1,2.5,0.2c0.7,0.1,1.8,0.5,3.1,1c0.7,0.3,1.1,0.4,1.4,0.4c0.2,0,0.4-0.1,0.6-0.3c0.2-0.2,0.3-0.6,0.3-1.3H304.1z"/>
	<path id="XMLID_35_" class="st0" d="M333.3,58.9h-6.7l-1.2,2.7c-0.3,0.7-0.4,1.2-0.4,1.5c0,0.3,0.1,0.5,0.4,0.7
		c0.3,0.2,0.8,0.3,1.6,0.4v0.5h-5.5v-0.5c0.7-0.1,1.2-0.3,1.4-0.5c0.4-0.4,0.9-1.2,1.4-2.5l6.1-14.3h0.4l6,14.4
		c0.5,1.2,0.9,1.9,1.3,2.3c0.4,0.3,0.9,0.5,1.7,0.6v0.5h-6.8v-0.5c0.7,0,1.2-0.1,1.4-0.3c0.2-0.2,0.4-0.4,0.4-0.7
		c0-0.4-0.2-1-0.5-1.8L333.3,58.9z M332.9,58l-2.9-7l-3,7H332.9z"/>
	<path id="XMLID_32_" class="st0" d="M371,64.8h-4.6l-5.9-8.1c-0.4,0-0.8,0-1.1,0c-0.1,0-0.2,0-0.4,0c-0.1,0-0.3,0-0.4,0v5
		c0,1.1,0.1,1.8,0.4,2c0.3,0.4,0.8,0.6,1.5,0.6h0.7v0.5h-7.4v-0.5h0.7c0.7,0,1.3-0.2,1.6-0.7c0.2-0.3,0.3-0.9,0.3-1.9V50.5
		c0-1.1-0.1-1.8-0.4-2c-0.3-0.4-0.8-0.6-1.5-0.6h-0.7v-0.5h6.3c1.8,0,3.2,0.1,4.1,0.4c0.9,0.3,1.6,0.8,2.2,1.5
		c0.6,0.7,0.9,1.6,0.9,2.6c0,1.1-0.3,2-1,2.8c-0.7,0.8-1.8,1.3-3.2,1.7l3.6,5c0.8,1.1,1.5,1.9,2.1,2.3c0.6,0.4,1.4,0.6,2.3,0.7V64.8
		z M358.7,55.8c0.2,0,0.3,0,0.4,0c0.1,0,0.2,0,0.3,0c1.7,0,2.9-0.4,3.7-1.1c0.8-0.7,1.3-1.6,1.3-2.7c0-1.1-0.3-2-1-2.6
		c-0.7-0.7-1.6-1-2.7-1c-0.5,0-1.2,0.1-2,0.2V55.8z"/>
	<path id="XMLID_29_" class="st0" d="M384.3,64.8v-0.5h0.7c0.7,0,1.3-0.2,1.6-0.7c0.2-0.3,0.3-0.9,0.3-1.9V50.5c0-1.1-0.1-1.8-0.4-2
		c-0.3-0.4-0.8-0.6-1.5-0.6h-0.7v-0.5h7.1c2.6,0,4.6,0.3,5.9,0.9c1.4,0.6,2.4,1.6,3.3,2.9c0.8,1.4,1.2,3,1.2,4.8
		c0,2.4-0.7,4.4-2.2,6.1c-1.6,1.8-4.2,2.7-7.5,2.7H384.3z M389.3,63.5c1.1,0.2,2,0.4,2.7,0.4c2,0,3.6-0.7,4.9-2.1
		c1.3-1.4,2-3.3,2-5.7c0-2.4-0.7-4.3-2-5.7c-1.3-1.4-3-2.1-5-2.1c-0.8,0-1.6,0.1-2.6,0.4V63.5z"/>
	<path id="XMLID_27_" class="st0" d="M421.3,48.3v6.9h3.8c1,0,1.7-0.1,2-0.4c0.4-0.4,0.7-1.1,0.7-2.1h0.5v6h-0.5
		c-0.1-0.8-0.2-1.4-0.4-1.6c-0.2-0.3-0.4-0.5-0.8-0.7c-0.4-0.2-0.9-0.3-1.6-0.3h-3.8v5.7c0,0.8,0,1.2,0.1,1.4
		c0.1,0.2,0.2,0.3,0.4,0.4c0.2,0.1,0.5,0.1,1,0.1h2.9c1,0,1.7-0.1,2.1-0.2c0.4-0.1,0.9-0.4,1.3-0.8c0.5-0.5,1.1-1.3,1.6-2.4h0.5
		l-1.5,4.4h-13.4v-0.5h0.6c0.4,0,0.8-0.1,1.2-0.3c0.3-0.1,0.5-0.3,0.6-0.6c0.1-0.3,0.1-0.8,0.1-1.7V50.4c0-1.1-0.1-1.8-0.3-2
		c-0.3-0.3-0.8-0.5-1.5-0.5h-0.6v-0.5h13.4l0.2,3.8h-0.5c-0.2-0.9-0.4-1.5-0.6-1.9c-0.2-0.3-0.5-0.6-1-0.8c-0.3-0.1-0.9-0.2-1.8-0.2
		H421.3z"/>
	<path id="XMLID_25_" class="st0" d="M444.6,47.4h4.7l10.6,13v-10c0-1.1-0.1-1.7-0.4-2c-0.3-0.4-0.8-0.5-1.5-0.5h-0.6v-0.5h6v0.5
		h-0.6c-0.7,0-1.3,0.2-1.6,0.7c-0.2,0.3-0.3,0.9-0.3,1.9V65h-0.5l-11.4-14v10.7c0,1.1,0.1,1.7,0.3,2c0.3,0.4,0.8,0.5,1.5,0.5h0.6
		v0.5h-6v-0.5h0.6c0.7,0,1.3-0.2,1.6-0.7c0.2-0.3,0.3-0.9,0.3-1.9V49.7c-0.5-0.6-0.9-1-1.1-1.2c-0.3-0.2-0.6-0.4-1.1-0.5
		c-0.2-0.1-0.6-0.1-1.1-0.1V47.4z"/>
</g>
<line id="XMLID_23_" class="st1" x1="92.6" y1="74.2" x2="213.7" y2="74.2"/>
<line id="XMLID_22_" class="st1" x1="92.6" y1="29.8" x2="213.7" y2="29.8"/>
<line id="XMLID_21_" class="st1" x1="282.5" y1="29.8" x2="463.5" y2="29.8"/>
<line id="XMLID_20_" class="st1" x1="282.5" y1="74.9" x2="463.5" y2="74.9"/>
<g id="XMLID_15_">
	<path id="XMLID_16_" class="st2" d="M241.2,21c1.8,0,3.5,0.3,5,0.8c1.5,0.6,2.8,1.3,3.8,2.2c1.1,0.9,1.9,2,2.4,3.3
		c0.6,1.2,0.8,2.6,0.8,4c0,1.1-0.1,2.3-0.4,3.4c-0.3,1.2-0.8,2.3-1.6,3.5c-0.8,1.2-1.9,2.3-3.3,3.4c-1.4,1.1-3.3,2.2-5.6,3.3
		l14.2,15c0.7-1.1,1.3-2.2,2-3.5c0.6-1.3,1.2-2.6,1.6-3.9c0.5-1.3,0.8-2.6,1.2-3.9c0.3-1.3,0.5-2.4,0.6-3.4c0-0.4-0.2-0.6-0.5-0.6
		l-5.8-0.5c-0.3,0-0.4-0.1-0.4-0.4v-2.1c0-0.3,0.1-0.4,0.4-0.4h17c0.3,0,0.4,0.1,0.4,0.4v2.1c0,0.3-0.1,0.4-0.4,0.4l-6.4,0.5
		c-0.3,0.1-0.5,0.1-0.5,0.2c-0.1,0.1-0.1,0.2-0.1,0.3c-0.1,1.1-0.3,2.4-0.7,3.8c-0.3,1.4-0.8,2.9-1.4,4.5c-0.6,1.6-1.2,3.2-1.9,4.8
		c-0.7,1.6-1.5,3.1-2.3,4.5l9,9.4c0.1,0.1,0.2,0.2,0.4,0.2l6.6,0.6c0.3,0,0.4,0.1,0.4,0.4v2.1c0,0.3-0.1,0.4-0.4,0.4h-12.8
		c-0.2,0-0.3-0.1-0.4-0.2l-6.8-7.1c-1,1.2-2.1,2.3-3.1,3.3c-1.1,1-2.3,1.9-3.7,2.7c-1.4,0.8-2.9,1.4-4.6,1.8c-1.7,0.4-3.7,0.6-6,0.6
		c-2.3,0-4.4-0.4-6.3-1.1c-1.9-0.8-3.6-1.8-5-3c-1.4-1.3-2.6-2.8-3.4-4.5c-0.8-1.7-1.2-3.6-1.2-5.5c0-3.5,1-6.7,2.9-9.5
		c1.9-2.8,4.8-5.3,8.8-7.5c-1.1-1.2-2-2.3-2.7-3.3c-0.7-1-1.3-2-1.7-3c-0.4-1-0.8-1.9-1-2.9c-0.2-1-0.3-2-0.3-3.1c0-1.8,0.3-3.4,1-5
		c0.7-1.5,1.6-2.8,2.8-3.9c1.2-1.1,2.6-2,4.3-2.6C237.4,21.3,239.2,21,241.2,21z M232.9,50.4c-0.8,0.8-1.5,1.7-2.1,2.7
		c-0.6,1-1.1,2-1.4,3.1c-0.3,1.1-0.5,2.1-0.5,3.2c0,1.9,0.3,3.6,1,5.1c0.6,1.5,1.5,2.8,2.7,3.8c1.1,1,2.5,1.9,4,2.5
		c1.5,0.6,3.1,0.9,4.8,0.9c2,0,3.9-0.5,5.9-1.4c1.9-0.9,3.7-2.4,5.2-4.5l-16.6-17.5C234.6,48.8,233.7,49.5,232.9,50.4z M239.9,24.6
		c-0.8,0-1.6,0.1-2.3,0.4c-0.7,0.3-1.4,0.7-1.9,1.2c-0.6,0.5-1,1.2-1.3,1.9c-0.3,0.8-0.5,1.7-0.5,2.7c0,1.9,0.5,3.8,1.6,5.6
		s2.6,3.8,4.6,5.8c2.4-1.2,4.2-2.7,5.4-4.4c1.2-1.7,1.8-3.7,1.8-5.9c0-2.4-0.6-4.2-1.9-5.5C244,25.3,242.2,24.6,239.9,24.6z"/>
</g>
</svg>
